<?xml version="1.0"?>
<svg xmlns="http://www.w3.org/2000/svg" id="Layer_1" data-name="Layer 1" viewBox="0 0 64 64" width="512" height="512"><circle cx="18.769" cy="59.231" r="4.577"/><circle cx="40.231" cy="59.231" r="4.577"/><path d="M15,50a1,1,0,0,0,0-2H14a1,1,0,0,0,0,2Z"/><path d="M19,50a1,1,0,0,0,0-2H18a1,1,0,0,0,0,2Z"/><path d="M10,50h1a1,1,0,0,0,0-2H10a1,1,0,0,0,0,2Z"/><path d="M63,0H54a1,1,0,0,0-.966.742L49.232,15H36.949c.027.331.051.662.051,1a12,12,0,0,1-24,0c0-.338.023-.669.051-1H1a1,1,0,0,0-.98,1.2l5,25A1,1,0,0,0,6,42H46v9H10a1,1,0,0,0-.871.51l-2.25,4a1,1,0,1,0,1.742.98L10.585,53H47a1,1,0,0,0,1-1V41.062l2.985-24.877L54.769,2H63a1,1,0,0,0,0-2ZM30,37H11a1,1,0,0,1,0-2H30a1,1,0,0,1,0,2Zm4,0H33a1,1,0,0,1,0-2h1a1,1,0,0,1,0,2Zm4,0H37a1,1,0,0,1,0-2h1a1,1,0,0,1,0,2Zm4,0H41a1,1,0,0,1,0-2h1a1,1,0,0,1,0,2Zm1-5H10a1,1,0,0,1,0-2H43a1,1,0,0,1,0,2Zm1-5H37a1,1,0,0,1,0-2h7a1,1,0,0,1,0,2Zm1-5H40a1,1,0,0,1,0-2h5a1,1,0,0,1,0,2Z"/><path d="M25,6A9.894,9.894,0,0,0,15,16a10,10,0,0,0,20,0A9.894,9.894,0,0,0,25,6Zm5,11H26v4a1,1,0,0,1-2,0V17H20a1,1,0,0,1,0-2h4V11a1,1,0,0,1,2,0v4h4a1,1,0,0,1,0,2Z"/></svg>
